<svg xmlns="http://www.w3.org/2000/svg" width="40" height="40" viewBox="0 0 40 40" fill="none">
<path d="M0 20C0 8.95431 8.95431 0 20 0C31.0457 0 40 8.95431 40 20C40 31.0457 31.0457 40 20 40C8.95431 40 0 31.0457 0 20Z"
      fill="#3F51FF"/>
<path d="M10.5078 29.1C9.58781 29.1 8.75448 28.8733 8.00781 28.42C7.27448 27.9667 6.69448 27.3133 6.26781 26.46C5.84115 25.5933 5.62781 24.5733 5.62781 23.4C5.62781 21.3733 6.06115 19.5 6.92781 17.78C7.79448 16.0467 9.07448 14.66 10.7678 13.62C12.4611 12.5667 14.4945 12.04 16.8678 12.04C17.4811 12.04 18.1345 12.0867 18.8278 12.18C19.5345 12.2733 20.1745 12.4133 20.7478 12.6C21.1211 12.7067 21.3078 12.9733 21.3078 13.4C21.3078 13.7467 21.1745 14.0733 20.9078 14.38C20.6545 14.6867 20.3545 14.84 20.0078 14.84C19.9011 14.84 19.8211 14.8333 19.7678 14.82C19.0745 14.66 18.4811 14.5467 17.9878 14.48C17.4945 14.4 16.9745 14.36 16.4278 14.36C14.7345 14.36 13.2945 14.7733 12.1078 15.6C10.9211 16.4133 10.0345 17.4933 9.44781 18.84C8.86115 20.1867 8.56781 21.64 8.56781 23.2C8.56781 24.3333 8.78781 25.2133 9.22781 25.84C9.68115 26.4533 10.2678 26.76 10.9878 26.76C11.8011 26.76 12.5145 26.4267 13.1278 25.76C13.7411 25.0933 14.3011 24.0133 14.8078 22.52C15.3145 21.0267 15.8145 19 16.3078 16.44C16.3878 16.0667 16.5478 15.8133 16.7878 15.68C17.0278 15.5467 17.3478 15.48 17.7478 15.48C18.6945 15.48 19.1678 15.7867 19.1678 16.4C19.1678 16.5067 19.1478 16.64 19.1078 16.8C18.7611 18.0933 18.4411 19.5267 18.1478 21.1C17.8678 22.66 17.7278 23.8467 17.7278 24.66C17.7278 25.38 17.8345 25.9067 18.0478 26.24C18.2611 26.56 18.5878 26.72 19.0278 26.72C19.4545 26.72 19.8611 26.58 20.2478 26.3C20.6345 26.0067 21.1211 25.5133 21.7078 24.82C21.8678 24.6333 22.0478 24.54 22.2478 24.54C22.4211 24.54 22.5545 24.62 22.6478 24.78C22.7545 24.94 22.8078 25.16 22.8078 25.44C22.8078 25.96 22.6811 26.3733 22.4278 26.68C21.7745 27.4667 21.1345 28.0667 20.5078 28.48C19.8811 28.8933 19.1145 29.1 18.2078 29.1C17.2745 29.1 16.5211 28.8333 15.9478 28.3C15.3745 27.7533 15.0145 26.9867 14.8678 26C13.8811 28.0667 12.4278 29.1 10.5078 29.1ZM37.5105 20.36C37.8171 20.36 38.0371 20.4267 38.1705 20.56C38.3171 20.6933 38.3905 20.8667 38.3905 21.08C38.3905 21.4267 38.2838 21.7333 38.0705 22C37.8705 22.2667 37.5505 22.4067 37.1105 22.42C36.0438 22.4467 35.0971 22.3667 34.2705 22.18C33.3238 24.1667 32.1771 25.82 30.8305 27.14C29.4971 28.4467 28.1571 29.1 26.8105 29.1C25.4238 29.1 24.3905 28.2933 23.7105 26.68C23.0305 25.0667 22.6905 22.8867 22.6905 20.14C22.6905 17.7933 22.8571 15.6867 23.1905 13.82C23.3105 13.1267 23.4771 12.66 23.6905 12.42C23.9171 12.1667 24.2971 12.04 24.8305 12.04C25.7105 12.04 26.1505 12.42 26.1505 13.18C26.1505 13.26 26.1371 13.4067 26.1105 13.62C25.7105 16.02 25.5105 18.1933 25.5105 20.14C25.5105 22.18 25.6771 23.7333 26.0105 24.8C26.3571 25.8533 26.8705 26.38 27.5505 26.38C28.2438 26.38 28.9971 25.9 29.8105 24.94C30.6238 23.98 31.3705 22.7733 32.0505 21.32C31.2371 20.8133 30.6238 20.16 30.2105 19.36C29.7971 18.5467 29.5905 17.6133 29.5905 16.56C29.5905 15.5067 29.7505 14.62 30.0705 13.9C30.4038 13.1667 30.8505 12.62 31.4105 12.26C31.9838 11.9 32.6171 11.72 33.3105 11.72C34.1638 11.72 34.8371 12.0267 35.3305 12.64C35.8371 13.2533 36.0905 14.0933 36.0905 15.16C36.0905 16.6933 35.7571 18.3667 35.0905 20.18C35.7971 20.3 36.6038 20.36 37.5105 20.36ZM31.6105 16.42C31.6105 17.7267 32.0305 18.6933 32.8705 19.32C33.3905 17.8267 33.6505 16.5933 33.6505 15.62C33.6505 15.06 33.5771 14.6533 33.4305 14.4C33.2838 14.1333 33.0838 14 32.8305 14C32.4705 14 32.1771 14.2133 31.9505 14.64C31.7238 15.0533 31.6105 15.6467 31.6105 16.42Z"
      fill="white"/>
</svg>